<svg width="408" height="20" viewBox="0 0 408 20" fill="none" xmlns="http://www.w3.org/2000/svg">
    <path
        d="M0 18.1903V19.1585H0.972406L7.17408 12.9455H11.4465L17.6533 19.1585H18.6205V18.1903L12.4137 11.9825V7.70071L18.6205 1.48772V0.519531H17.6533L11.4516 6.73252H7.17408L0.967233 0.519531H0.00517348V1.4929L6.20685 7.70071V11.9825L0 18.1903Z"
        fill="black"/>
    <path d="M48.6748 0.519531V19.1585H67.2953V0.519531H48.6748ZM65.9247 17.7865H50.0403V1.89157H65.9247V17.7916V17.7865Z"
          fill="black"/>
    <path
        d="M57.9825 12.9404C59.6936 12.9404 61.0808 11.5519 61.0808 9.83911C61.0808 8.1263 59.6936 6.73779 57.9825 6.73779C56.2714 6.73779 54.8843 8.1263 54.8843 9.83911C54.8843 11.5519 56.2714 12.9404 57.9825 12.9404Z"
        fill="black"/>
    <path
        d="M115.965 6.73252V0.519531H109.759V5.76433L106.655 8.87083L103.557 5.76951V0.519531H97.3501V6.73252H102.59L105.693 9.83902L102.59 12.9455H97.3501V19.1585H103.557V13.9085L106.66 10.8072L109.759 13.9085V19.1585H115.965V12.9455H110.726L107.622 9.83902L110.726 6.73252H115.965Z"
        fill="black"/>
    <path
        d="M146.02 0.521973V19.1558H164.635V0.521973H146.02ZM163.27 13.1292L158.615 17.7889H152.035L147.386 13.1292V6.5434L152.035 1.88365H158.615L163.27 6.5434V13.1292Z"
        fill="black"/>
    <path
        d="M155.323 6.73535C153.611 6.73535 152.22 8.1281 152.22 9.84185C152.22 11.5556 153.611 12.9483 155.323 12.9483C157.035 12.9483 158.427 11.5556 158.427 9.84185C158.427 8.1281 157.035 6.73535 155.323 6.73535Z"
        fill="black"/>
    <path
        d="M208.655 9.83902C208.655 7.2658 210.74 5.17927 213.31 5.17927V0.519531H208.655C208.655 3.09274 206.571 5.17927 204 5.17927C201.43 5.17927 199.345 3.09792 199.345 0.519531H194.69V5.17927C197.261 5.17927 199.345 7.2658 199.345 9.83902C199.345 12.4122 197.261 14.4988 194.69 14.4988V19.1585H199.345C199.345 16.5853 201.43 14.4988 204 14.4988C206.571 14.4988 208.655 16.5853 208.655 19.1585H213.31V14.4988C210.74 14.4988 208.655 12.4122 208.655 9.83902Z"
        fill="black"/>
    <path
        d="M243.365 0.521973V19.1558H261.98V0.521973H243.365ZM252.675 12.948C250.963 12.948 249.572 11.5552 249.572 9.84146C249.572 8.12771 250.963 6.73496 252.675 6.73496C254.387 6.73496 255.778 8.12771 255.778 9.84146C255.778 11.5552 254.387 12.948 252.675 12.948Z"
        fill="black"/>
    <path
        d="M292.035 18.1903V19.1585H293.007L299.209 12.9455H303.481L309.688 19.1585H310.655V18.1903L304.448 11.9825V7.70071L310.655 1.48772V0.519531H309.688L303.486 6.73252H299.209L293.002 0.519531H292.04V1.4929L298.242 7.70071V11.9825L292.035 18.1903Z"
        fill="black"/>
    <path d="M340.709 0.519531V19.1585H359.33V0.519531H340.709ZM357.959 17.7865H342.075V1.89157H357.959V17.7916V17.7865Z"
          fill="black"/>
    <path
        d="M350.017 12.9404C351.728 12.9404 353.115 11.5519 353.115 9.83911C353.115 8.1263 351.728 6.73779 350.017 6.73779C348.306 6.73779 346.919 8.1263 346.919 9.83911C346.919 11.5519 348.306 12.9404 350.017 12.9404Z"
        fill="black"/>
    <path
        d="M408 6.73252V0.519531H401.793V5.76433L398.69 8.87083L395.592 5.76951V0.519531H389.385V6.73252H394.624L397.728 9.83902L394.624 12.9455H389.385V19.1585H395.592V13.9085L398.695 10.8072L401.793 13.9085V19.1585H408V12.9455H402.761L399.657 9.83902L402.761 6.73252H408Z"
        fill="black"/>
</svg>